<?xml version="1.0" encoding="UTF-8"?>
<svg id="Layer_1" data-name="Layer 1" xmlns="http://www.w3.org/2000/svg" viewBox="0 0 507.59 474.04">
  <defs>
    <style>
      .cls-1 {
        fill: #231f20;
      }

      .cls-2 {
        fill: none;
        stroke: #231f20;
        stroke-miterlimit: 10;
        stroke-width: 30px;
      }
    </style>
  </defs>
  <g id="changeskin">
    <circle class="cls-2" cx="114.64" cy="375.24" r="82.14"/>
    <circle class="cls-2" cx="392.95" cy="97.14" r="82.14"/>
    <path class="cls-1" d="M458.12,280.14l-39.56-39.56c-.09-.09-.19-.17-.28-.26-.22-.21-.45-.42-.69-.62-.16-.14-.33-.26-.49-.39-.22-.17-.44-.33-.67-.49-.19-.13-.38-.25-.57-.37-.22-.14-.44-.27-.67-.39-.2-.11-.41-.22-.61-.32-.23-.11-.47-.22-.71-.33-.2-.09-.41-.17-.61-.25-.25-.1-.51-.19-.77-.27-.2-.06-.4-.12-.61-.18-.27-.07-.54-.14-.81-.2-.21-.04-.41-.08-.62-.12-.27-.05-.54-.09-.81-.12-.23-.03-.46-.04-.69-.06-.25-.02-.5-.03-.75-.04-.27,0-.53,0-.8.01-.16,0-.31,0-.47,0-.07,0-.13.02-.2.02-.28.02-.56.06-.85.1-.21.03-.43.05-.64.09-.26.05-.52.11-.78.17-.22.05-.44.1-.66.16-.24.07-.48.16-.72.24-.23.08-.45.15-.67.24-.23.09-.44.2-.67.3-.22.1-.45.2-.67.31-.21.11-.41.23-.62.35-.22.13-.44.25-.65.39-.19.12-.37.26-.55.39-.22.16-.44.31-.65.48-.16.13-.32.27-.48.41-.22.19-.43.38-.64.58-.05.05-.1.09-.15.13l-38.24,38.24c-5.86,5.86-5.86,15.36,0,21.21,2.93,2.93,6.77,4.39,10.61,4.39s7.68-1.46,10.61-4.39l12.48-12.48c-2.5,27.31-10.92,48.25-25.18,62.49-19.88,19.86-52.78,28.34-97.79,25.23-8.25-.57-15.43,5.66-16,13.93-.57,8.26,5.67,15.43,13.93,16,6.67.46,13.14.69,19.4.69,44.47,0,78.61-11.61,101.65-34.63,19.88-19.86,31.29-48,34.08-83.92l14.01,14.01c2.93,2.93,6.77,4.39,10.61,4.39s7.68-1.46,10.61-4.39c5.86-5.86,5.86-15.35,0-21.21Z"/>
    <path class="cls-1" d="M49.47,192.24l39.56,39.56c.09.09.19.17.28.26.22.21.45.42.69.62.16.14.33.26.49.39.22.17.44.33.67.49.19.13.38.25.57.37.22.14.44.27.67.39.2.11.41.22.61.32.23.11.47.22.71.33.2.09.41.17.61.25.25.1.51.19.77.27.2.06.4.12.61.18.27.07.54.14.81.2.21.04.41.08.62.12.27.05.54.09.81.12.23.03.46.04.69.06.25.02.5.03.75.04.27,0,.53,0,.8-.01.16,0,.31,0,.47,0,.07,0,.13-.02.2-.02.28-.02.56-.06.85-.1.21-.03.43-.05.64-.09.26-.05.52-.11.78-.17.22-.05.44-.1.66-.16.24-.07.48-.16.72-.24.23-.08.45-.15.67-.24.23-.09.44-.2.67-.3.22-.1.45-.2.67-.31.21-.11.41-.23.62-.35.22-.13.44-.25.65-.39.19-.12.37-.26.55-.39.22-.16.44-.31.65-.48.16-.13.32-.27.48-.41.22-.19.43-.38.64-.58.05-.05.1-.09.15-.13l38.24-38.24c5.86-5.86,5.86-15.36,0-21.21-2.93-2.93-6.77-4.39-10.61-4.39s-7.68,1.46-10.61,4.39l-12.48,12.48c2.5-27.31,10.92-48.25,25.18-62.49,19.88-19.86,52.78-28.34,97.79-25.23,8.25.57,15.43-5.66,16-13.93.57-8.26-5.67-15.43-13.93-16-6.67-.46-13.14-.69-19.4-.69-44.47,0-78.61,11.61-101.65,34.63-19.88,19.86-31.29,48-34.08,83.92l-14.01-14.01c-2.93-2.93-6.77-4.39-10.61-4.39s-7.68,1.46-10.61,4.39c-5.86,5.86-5.86,15.35,0,21.21Z"/>
  </g>
</svg>