<?xml version="1.0" encoding="UTF-8"?>
<svg id="Layer_1" data-name="Layer 1" xmlns="http://www.w3.org/2000/svg" viewBox="0 0 507.59 468.86">
  <defs>
    <style>
      .cls-1 {
        fill: #231f20;
      }
    </style>
  </defs>
  <g id="R_D" data-name="R&amp;amp;D">
    <path class="cls-1" d="M190.59,340.52h-95.79v58.98c0,14.07,11.41,25.48,25.48,25.48h70.31c14.07,0,25.48-11.41,25.48-25.48v-58.98h-25.48Z"/>
    <path class="cls-1" d="M154.37,37.14c-73.69,0-133.43,57.67-133.43,128.8,0,21.01,5.21,40.84,14.45,58.36,10.72,29.31,44.94,60.5,57.62,101.28.18.75.36,1.49.56,2.23h51.32v-68.43l-55.68-56.39c-4.12-4.17-4.12-10.94,0-15.11,4.12-4.17,10.8-4.17,14.92,0l51.31,51.96,51.31-51.96c4.12-4.17,10.8-4.17,14.92,0,4.12,4.17,4.12,10.94,0,15.11l-55.68,56.39v68.43h49.05c.19-.73.38-1.48.56-2.23,12.58-40.45,46.34-71.45,57.36-100.55,9.48-17.7,14.84-37.79,14.84-59.09,0-71.14-59.74-128.8-133.43-128.8ZM256.75,170.09c-.27.02-.54.03-.8.03-5.18,0-9.57-3.99-9.98-9.24-3.23-41-33.82-74.28-74.38-80.93-5.46-.9-9.17-6.05-8.27-11.52.9-5.47,6.06-9.17,11.52-8.27,49.7,8.15,87.17,48.93,91.13,99.15.44,5.52-3.69,10.35-9.21,10.78Z"/>
    <path class="cls-1" d="M474.81,152.71c-.55-1.32-2.16-1.82-3.39-1.09-11.95,7.17-27.66,5.64-37.96-4.66-12.15-12.15-12.15-31.84,0-43.99.69-.69,1.41-1.34,2.15-1.94,1.13-.92,1.23-2.62.15-3.61-12.29-11.2-26.37-20.48-41.77-27.34-1.27-.57-2.75.11-3.19,1.43-4.11,12.36-15.74,21.28-29.48,21.28-17.18,0-31.1-13.93-31.1-31.1,0-.87.04-1.72.12-2.57.13-1.38-1-2.56-2.38-2.55-17.27.24-33.87,3.29-49.36,8.69-1.38.48-1.96,2.1-1.26,3.38,3.65,6.7,4.64,14.45,3.01,21.73,7.45,10.97,13.3,23.05,17.24,35.91,10.11-3.78,21.05-5.85,32.48-5.85,51.3,0,92.88,41.58,92.88,92.88s-41.58,92.88-92.88,92.88c-28.19,0-53.43-12.58-70.47-32.41-12.19,17.5-24.85,36.51-31.96,58.04,12.12,10.5,25.85,19.18,40.79,25.59,1.65.71,3.47-.58,3.3-2.37-.09-.93-.13-1.87-.13-2.83,0-24.33,27.94-42.14,53.49-23.09.2.15.38.33.52.52,9.89,13.1,10.03,26.69,4.66,36.94-.84,1.6.34,3.48,2.14,3.46,21.27-.29,41.51-4.83,59.93-12.78,1.61-.7,1.93-2.79.63-3.97-.33-.29-.64-.6-.96-.91-17.21-17.21-10.04-49.56,21.5-54.15.24-.04.5-.04.74,0,14.67,2.04,24.04,10.02,28.26,19.71.67,1.54,2.75,1.86,3.88.61,13.4-14.78,24.01-32.12,31.03-51.21-.04,0-.09,0-.13,0-24.14,0-41.86-27.51-23.52-52.9.14-.19.31-.37.5-.52,10.25-8.15,20.63-10.03,29.59-8.08,1.5.33,2.91-.92,2.81-2.45-1.11-17.89-5.23-34.96-11.84-50.72Z"/>
  </g>
</svg>