<?xml version="1.0" encoding="UTF-8"?>
<svg id="Layer_1" data-name="Layer 1" xmlns="http://www.w3.org/2000/svg" viewBox="0 0 507.59 468.86">
  <defs>
    <style>
      .cls-1 {
        fill: #231f20;
      }

      .cls-1, .cls-2 {
        stroke: #231f20;
        stroke-linecap: round;
        stroke-miterlimit: 10;
        stroke-width: 20px;
      }

      .cls-2 {
        fill: none;
      }
    </style>
  </defs>
  <g id="sales">
    <path class="cls-1" d="M39.48,363.56h47.33c6.17,0,11.18,5.01,11.18,11.18v56.91c0,6.17-5.01,11.18-11.18,11.18h-47.15c-6.17,0-11.18-5.01-11.18-11.18v-57.08c0-6.07,4.93-11,11-11Z"/>
    <path class="cls-1" d="M166.52,341.18h47.33c6.17,0,11.18,5.01,11.18,11.18v79.29c0,6.17-5.01,11.18-11.18,11.18h-47.15c-6.17,0-11.18-5.01-11.18-11.18v-79.47c0-6.07,4.93-11,11-11Z"/>
    <path class="cls-1" d="M293.56,292.51h47.33c6.17,0,11.18,5.01,11.18,11.18v127.96c0,6.17-5.01,11.18-11.18,11.18h-47.15c-6.17,0-11.18-5.01-11.18-11.18v-128.13c0-6.07,4.93-11,11-11Z"/>
    <path class="cls-1" d="M420.6,197.63h47.33c6.17,0,11.18,5.01,11.18,11.18v222.83c0,6.17-5.01,11.18-11.18,11.18h-47.15c-6.17,0-11.18-5.01-11.18-11.18v-223.01c0-6.07,4.93-11,11-11Z"/>
    <path class="cls-2" d="M28.48,292.51c208.24-24.22,353.58-115.32,436.02-273.3"/>
    <line class="cls-2" x1="376.01" y1="43.79" x2="464.5" y2="19.21"/>
    <line class="cls-2" x1="471.83" y1="107.08" x2="464.5" y2="19.21"/>
  </g>
</svg>