<?xml version="1.0" encoding="UTF-8"?><svg id="Layer_1" xmlns="http://www.w3.org/2000/svg" width="512" height="512" viewBox="0 0 512 512"><g id="BOX"><polygon points="256 20.79 52.302 138.395 52.302 373.605 256 491.21 459.698 373.605 459.698 138.395 256 20.79" fill="none" stroke="#231f20" stroke-linejoin="round" stroke-width="20"/><line x1="256" y1="256" x2="52.302" y2="138.395" fill="none" stroke="#231f20" stroke-miterlimit="10" stroke-width="20"/><line x1="459.698" y1="138.395" x2="256" y2="256" fill="none" stroke="#231f20" stroke-miterlimit="10" stroke-width="20"/><line x1="256" y1="491.21" x2="256" y2="256" fill="none" stroke="#231f20" stroke-miterlimit="10" stroke-width="20"/><line x1="256" y1="20.79" x2="256" y2="35.79" fill="none" stroke="#231f20" stroke-miterlimit="10" stroke-width="20"/><line x1="256" y1="65.106" x2="256" y2="226.342" fill="none" stroke="#231f20" stroke-dasharray="29.316 29.316" stroke-miterlimit="10" stroke-width="20"/><line x1="256" y1="241" x2="256" y2="256" fill="none" stroke="#231f20" stroke-miterlimit="10" stroke-width="20"/><line x1="52.302" y1="373.605" x2="65.292" y2="366.105" fill="none" stroke="#231f20" stroke-miterlimit="10" stroke-width="20"/><line x1="90.68" y1="351.447" x2="230.315" y2="270.829" fill="none" stroke="#231f20" stroke-dasharray="29.316 29.316" stroke-miterlimit="10" stroke-width="20"/><line x1="243.009" y1="263.5" x2="256" y2="256" fill="none" stroke="#231f20" stroke-miterlimit="10" stroke-width="20"/><line x1="459.698" y1="373.605" x2="446.707" y2="366.105" fill="none" stroke="#231f20" stroke-miterlimit="10" stroke-width="20"/><line x1="421.319" y1="351.448" x2="281.684" y2="270.829" fill="none" stroke="#231f20" stroke-dasharray="29.316 29.316" stroke-miterlimit="10" stroke-width="20"/><line x1="268.99" y1="263.5" x2="256" y2="256" fill="none" stroke="#231f20" stroke-miterlimit="10" stroke-width="20"/></g><polygon id="Side_View" points="290.441 427.72 421.933 351.802 421.934 199.967 290.441 275.885 290.441 427.72" fill="#231f20" stroke="#231f20" stroke-linecap="round" stroke-linejoin="round" stroke-width="20"/></svg>